<svg width="59" height="59" viewBox="0 0 59 59" fill="none" xmlns="http://www.w3.org/2000/svg">
<g clip-path="url(#clip0_7_72)">
<path d="M29.5002 29.5C29.5002 16.3928 49.1675 16.3928 49.1675 29.5C49.1675 42.6072 29.5002 42.6072 29.5002 29.5ZM9.8329 49.1673C9.8329 43.7319 14.2302 39.3346 19.6656 39.3346H29.4983V49.1673C29.4983 62.2745 9.83105 62.2745 9.83105 49.1673H9.8329ZM29.5002 1.26954e-05V19.6673H39.3329C52.4401 19.6673 52.4401 1.26954e-05 39.3329 1.26954e-05H29.5002ZM9.8329 9.83273C9.8329 15.2681 14.2302 19.6655 19.6656 19.6655H29.4983V-0.00183105H19.6656C14.2302 -0.00183105 9.8329 4.39551 9.8329 9.83089V9.83273ZM9.8329 29.5C9.8329 34.9354 14.2302 39.3327 19.6656 39.3327H29.4983V19.6655H19.6656C14.2302 19.6655 9.8329 24.0628 9.8329 29.4982V29.5Z" fill="#FAFAFA"/>
</g>
<defs>
<clipPath id="clip0_7_72">
<rect width="59" height="59" fill="white"/>
</clipPath>
</defs>
</svg>
