<svg width="59" height="59" viewBox="0 0 59 59" fill="none" xmlns="http://www.w3.org/2000/svg">
<path d="M0 0H59V59H0V0ZM54.1694 44.9322C53.7379 42.2329 51.979 39.9762 46.7852 37.8651C44.9801 37.0207 42.9631 36.4251 42.3675 35.0608C42.1463 34.2532 42.1076 33.8125 42.2514 33.3313C42.6257 31.7365 44.4989 31.2663 45.9776 31.7088C46.9382 32.0057 47.8213 32.7358 48.3782 33.9176C50.9225 32.2564 50.9225 32.2564 52.6907 31.152C52.0288 30.125 51.7024 29.6733 51.2507 29.2419C49.7038 27.5032 47.6407 26.6201 44.2887 26.6975L42.5501 26.9188C40.8888 27.3225 39.3051 28.2057 38.3445 29.3875C35.5493 32.5569 36.3569 38.0882 39.7457 40.3837C43.0977 42.8893 48.0039 43.4369 48.6381 45.8006C49.2244 48.6824 46.4975 49.6043 43.7983 49.2668C41.8107 48.8243 40.7063 47.8269 39.4858 45.9831L34.9907 48.5662C35.4996 49.7481 36.0951 50.2569 36.9782 51.2931C41.2521 55.6057 51.9495 55.3844 53.8688 48.8243C53.9352 48.6031 54.4552 47.0857 54.0514 44.7718L54.1694 44.9322ZM32.0831 27.1179H26.5611C26.5611 31.8803 26.5316 36.615 26.5316 41.3885C26.5316 44.4141 26.6846 47.1982 26.196 48.0537C25.3792 49.7444 23.2958 49.5323 22.3444 49.2355C21.3746 48.7561 20.8749 48.0924 20.3089 47.1318C20.1448 46.8718 20.0305 46.6524 19.9918 46.6524L15.5078 49.418C16.2563 50.9649 17.3515 52.2998 18.7638 53.1442C20.8676 54.4017 23.6903 54.8055 26.6477 54.1436C28.5689 53.5868 30.2301 52.4436 31.093 50.6773C32.3504 48.3911 32.0812 45.5886 32.072 42.4468C32.1015 37.3949 32.072 32.3449 32.072 27.2543L32.0831 27.1179Z" fill="#FAFAFA"/>
</svg>
